<?xml version="1.0" standalone="no"?>
<!DOCTYPE svg PUBLIC "-//W3C//DTD SVG 20010904//EN"
 "http://www.w3.org/TR/2001/REC-SVG-20010904/DTD/svg10.dtd">
<svg version="1.0" xmlns="http://www.w3.org/2000/svg"
 width="1080.000000pt" height="680.000000pt" viewBox="0 0 1080.000000 680.000000"
 preserveAspectRatio="xMidYMid meet">

<g transform="translate(0.000000,680.000000) scale(0.100000,-0.100000)"
fill="#000000" stroke="none">
<path d="M1451 5779 c-288 -26 -468 -129 -559 -321 -64 -135 -92 -271 -111
-549 -32 -451 79 -664 390 -748 109 -30 230 -41 452 -41 233 0 357 12 476 46
152 44 247 118 306 238 52 104 68 193 67 376 0 399 -73 681 -211 819 -150 150
-436 213 -810 180z m697 -409 c58 -36 62 -58 62 -362 0 -300 -3 -318 -63 -362
-26 -19 -45 -21 -227 -24 l-198 -3 -30 -67 c-16 -37 -39 -78 -51 -92 l-21 -25
-19 25 c-11 14 -32 55 -47 92 l-27 67 -198 3 c-181 3 -200 5 -226 24 -60 44
-63 62 -63 362 0 304 4 326 62 362 32 19 49 20 523 20 474 0 491 -1 523 -20z"/>
<path d="M1180 5045 l0 -145 48 -1 c26 0 64 -1 84 -1 69 -2 113 67 84 135 -23
57 -58 71 -129 53 -27 -6 -27 -6 -27 49 0 54 0 55 -30 55 l-30 0 0 -145z m153
-26 c16 -26 0 -68 -29 -75 -29 -7 -64 18 -64 47 0 44 70 65 93 28z"/>
<path d="M1430 5159 c0 -17 7 -37 15 -45 11 -12 15 -40 15 -115 l0 -99 36 0
37 0 -5 103 c-5 107 -21 157 -57 177 -32 16 -41 12 -41 -21z"/>
<path d="M1644 5086 c-42 -19 -64 -52 -64 -97 0 -136 220 -136 224 0 2 76 -87
130 -160 97z m85 -60 c21 -25 9 -69 -21 -80 -50 -17 -89 42 -52 78 19 20 58
21 73 2z"/>
<path d="M1880 5072 c-25 -26 -30 -38 -30 -80 0 -85 62 -132 130 -99 26 13 30
13 30 1 0 -19 -36 -54 -55 -54 -9 0 -15 -9 -15 -25 0 -20 5 -25 25 -25 41 0
82 27 94 61 6 18 11 79 11 136 l0 104 -37 -1 c-21 0 -57 3 -80 6 -38 5 -46 3
-73 -24z m114 -48 c31 -30 9 -84 -34 -84 -22 0 -50 26 -50 46 0 48 51 71 84
38z"/>
<path d="M3703 5779 c-400 -36 -582 -200 -647 -587 -41 -239 -45 -549 -11
-677 56 -205 182 -315 416 -366 118 -26 531 -38 686 -20 333 39 481 147 550
401 38 137 17 558 -38 775 -77 305 -261 441 -639 475 -129 11 -184 11 -317 -1z
m365 -316 c-9 -92 -60 -163 -153 -211 -47 -25 -59 -27 -217 -30 -194 -4 -189
-7 -163 85 13 47 28 69 74 114 80 78 111 87 305 88 l159 1 -5 -47z m295 -367
c123 -61 123 -253 0 -311 -22 -11 -70 -20 -114 -23 l-77 -4 -22 -67 c-63 -192
-213 -301 -417 -301 -223 0 -382 123 -437 337 -17 63 -24 372 -9 387 4 4 239
6 523 4 483 -3 517 -4 553 -22z"/>
<path d="M4225 4995 c-16 -15 -25 -36 -25 -55 0 -19 9 -40 25 -55 15 -16 36
-25 55 -25 19 0 40 9 55 25 16 15 25 36 25 55 0 19 -9 40 -25 55 -15 16 -36
25 -55 25 -19 0 -40 -9 -55 -25z"/>
<path d="M8004 5751 c-57 -10 -130 -55 -158 -99 -46 -71 -47 -86 -44 -662 3
-536 3 -546 25 -585 25 -47 64 -85 113 -111 32 -17 69 -19 418 -24 l383 -5 48
-115 c82 -197 113 -249 145 -237 15 6 118 204 155 299 l23 57 382 3 382 3 49
26 c64 32 110 93 125 162 7 37 10 221 8 583 -3 520 -3 530 -25 569 -28 52 -78
99 -128 122 -38 17 -97 18 -950 19 -500 1 -928 -1 -951 -5z m638 -406 c20 -14
50 -46 65 -72 l28 -48 3 -222 3 -223 -70 0 -71 0 0 201 0 201 -30 30 c-28 27
-30 35 -30 100 l0 71 32 -7 c18 -4 49 -17 70 -31z m-452 -80 c0 -58 2 -105 4
-105 2 0 20 7 39 15 43 18 129 20 160 4 147 -76 156 -315 14 -380 -50 -22
-134 -25 -182 -5 -19 8 -35 11 -35 5 0 -5 -31 -9 -70 -9 l-70 0 0 290 0 290
70 0 70 0 0 -105z m1448 -85 c26 -16 32 -17 32 -5 0 12 15 15 71 15 l71 0 -4
-227 c-3 -216 -4 -231 -27 -276 -33 -69 -82 -98 -171 -105 l-70 -5 0 55 0 56
44 11 c49 12 86 50 86 87 l0 23 -36 -24 c-49 -34 -132 -34 -189 -2 -132 75
-120 335 18 398 56 25 133 25 175 -1z m-485 -3 c149 -63 182 -243 66 -354 -88
-84 -236 -82 -324 4 -47 45 -65 88 -65 153 0 83 53 160 135 196 39 17 147 18
188 1z"/>
<path d="M8221 5044 c-25 -21 -31 -33 -31 -65 0 -79 85 -118 145 -66 44 37 35
116 -15 142 -41 21 -64 19 -99 -11z"/>
<path d="M9543 5060 c-12 -5 -29 -23 -38 -40 -46 -90 67 -175 139 -104 37 37
35 86 -3 125 -30 29 -58 35 -98 19z"/>
<path d="M8999 5041 c-37 -37 -38 -79 -3 -120 20 -24 34 -31 61 -31 46 0 93
45 93 90 0 43 -47 90 -90 90 -22 0 -41 -9 -61 -29z"/>
<path d="M7931 2824 c-58 -29 -104 -84 -122 -143 -7 -24 -9 -224 -7 -592 l3
-556 30 -49 c19 -30 49 -60 79 -79 l49 -30 388 -3 387 -3 32 -82 c49 -123 104
-239 128 -267 l20 -25 22 20 c20 18 104 181 158 308 l21 47 376 0 c296 0 383
3 409 14 46 19 104 72 129 120 22 41 22 44 22 606 0 560 0 565 -22 605 -12 22
-36 54 -55 72 -69 67 -10 63 -1051 63 l-943 0 -53 -26z m704 -383 c46 -31 81
-78 95 -130 5 -20 10 -125 10 -233 l0 -198 -70 0 -70 0 0 204 0 204 -30 25
c-28 24 -30 30 -30 97 l0 70 28 -6 c15 -3 45 -18 67 -33z m-447 -84 l3 -107
30 15 c16 9 52 19 79 22 205 24 292 -297 105 -387 -49 -24 -131 -26 -180 -6
-19 8 -35 11 -35 5 0 -5 -31 -9 -70 -9 l-70 0 0 290 0 291 68 -3 67 -3 3 -108z
m1453 -83 c26 -13 29 -13 29 1 0 13 12 15 68 13 l67 -3 3 -169 c4 -269 -15
-354 -91 -404 -31 -21 -55 -27 -108 -30 l-69 -4 0 55 0 54 39 7 c45 7 91 53
91 91 l0 24 -36 -24 c-49 -33 -132 -34 -188 -2 -111 62 -122 277 -20 366 19
17 47 33 62 37 15 3 32 7 37 10 18 6 86 -6 116 -22z m-475 -7 c70 -36 124
-119 124 -192 0 -112 -111 -215 -232 -215 -84 0 -169 54 -210 134 -54 105 15
247 138 286 41 13 144 6 180 -13z"/>
<path d="M8221 2144 c-56 -47 -38 -133 33 -158 47 -16 116 36 116 88 0 29 -24
68 -51 82 -40 20 -63 17 -98 -12z"/>
<path d="M9540 2157 c-60 -31 -64 -122 -7 -158 40 -25 84 -19 115 17 63 72
-23 186 -108 141z"/>
<path d="M9000 2142 c-50 -51 -38 -121 26 -148 29 -12 39 -12 68 0 87 36 69
157 -26 173 -32 5 -41 1 -68 -25z"/>
<path d="M1362 2734 c-109 -17 -234 -60 -303 -105 -197 -126 -293 -420 -292
-899 0 -157 3 -197 21 -263 67 -246 224 -360 548 -397 115 -13 463 -13 578 0
391 45 551 208 573 580 6 110 -8 324 -32 475 -62 391 -219 556 -580 610 -125
19 -387 18 -513 -1z m778 -399 c15 -8 38 -27 49 -41 20 -26 21 -38 21 -326 0
-331 -2 -342 -63 -375 -26 -15 -66 -19 -229 -23 l-197 -5 -43 -85 c-24 -46
-49 -86 -56 -88 -8 -2 -29 30 -54 86 l-42 91 -196 3 c-163 2 -200 6 -227 21
-61 33 -63 45 -63 369 0 321 1 326 59 365 l34 23 489 0 c412 0 493 -2 518 -15z"/>
<path d="M1177 2143 c-4 -3 -7 -71 -7 -150 l0 -143 53 -1 c128 -2 129 -1 154
23 40 40 31 129 -16 165 -20 15 -76 17 -102 3 -18 -10 -19 -7 -19 50 0 59 0
60 -28 60 -16 0 -32 -3 -35 -7z m148 -177 c30 -45 -20 -91 -64 -59 -23 16 -28
52 -9 71 20 20 56 14 73 -12z"/>
<path d="M1420 2117 c0 -20 8 -39 20 -50 18 -15 20 -29 20 -117 l0 -100 35 0
35 0 0 88 c0 109 -12 154 -51 186 -42 36 -59 34 -59 -7z"/>
<path d="M1905 2046 c-37 -16 -55 -52 -55 -110 0 -79 65 -125 131 -92 29 15
30 14 27 -7 -2 -12 -15 -28 -30 -35 -19 -9 -28 -21 -28 -38 0 -36 50 -33 92 5
l33 29 4 127 3 126 -43 -1 c-24 -1 -57 1 -74 4 -17 3 -43 0 -60 -8z m93 -68
c19 -19 14 -55 -9 -72 -26 -18 -59 -8 -70 21 -16 44 46 84 79 51z"/>
<path d="M1628 2034 c-35 -19 -48 -43 -48 -92 0 -73 69 -122 143 -101 40 11
49 18 70 49 28 41 22 87 -17 126 -28 28 -41 34 -77 34 -24 -1 -56 -7 -71 -16z
m100 -56 c7 -7 12 -21 12 -33 0 -29 -19 -45 -52 -45 -44 0 -60 57 -24 82 17
12 51 9 64 -4z"/>
<path d="M3615 2736 c-331 -54 -495 -206 -559 -519 -45 -218 -60 -562 -31
-713 50 -264 212 -392 550 -433 116 -14 474 -14 590 0 319 39 476 154 541 394
34 128 29 446 -12 687 -56 335 -200 501 -492 569 -112 27 -463 35 -587 15z
m455 -299 c0 -90 -64 -183 -158 -229 -42 -21 -63 -23 -215 -26 -193 -4 -191
-5 -163 85 23 72 83 138 161 174 58 28 65 29 218 29 l157 0 0 -33z m269 -377
c108 -31 159 -172 94 -263 -42 -60 -83 -77 -178 -77 l-81 0 -12 -48 c-43 -165
-161 -286 -313 -321 -106 -25 -259 -7 -351 40 -100 51 -183 173 -213 315 -15
70 -21 344 -8 357 10 11 1024 8 1062 -3z"/>
<path d="M4254 1970 c-26 -10 -54 -48 -54 -72 0 -47 42 -88 91 -88 29 0 79 53
79 84 0 52 -68 96 -116 76z"/>
<path d="M5790 2307 c0 -76 2 -83 23 -92 12 -6 30 -26 39 -45 16 -30 18 -65
18 -252 l0 -218 75 0 75 0 0 228 c0 263 -8 308 -68 374 -34 38 -119 88 -149
88 -9 0 -13 -23 -13 -83z"/>
<path d="M5230 2045 l0 -335 75 0 c60 0 75 3 75 15 0 13 6 12 40 -5 45 -23
130 -27 193 -8 106 32 164 171 125 300 -16 55 -79 123 -133 144 -54 20 -128
14 -187 -14 l-38 -19 0 128 0 129 -75 0 -75 0 0 -335z m331 -44 c23 -24 29
-38 29 -73 0 -53 -21 -85 -67 -105 -105 -43 -192 92 -114 176 24 26 36 31 76
31 38 0 52 -5 76 -29z"/>
<path d="M6891 2166 c-51 -17 -94 -56 -124 -111 -18 -33 -22 -57 -22 -135 0
-106 18 -156 74 -203 32 -26 117 -50 154 -43 12 3 34 7 49 10 14 3 40 18 57
32 30 25 31 25 31 5 0 -63 -49 -117 -116 -128 l-34 -6 0 -58 0 -59 63 0 c105
1 179 49 213 140 14 37 18 91 22 303 l4 257 -76 0 c-70 0 -76 -2 -76 -21 l0
-21 -35 22 c-44 27 -126 34 -184 16z m181 -165 c28 -25 33 -36 33 -75 0 -38
-5 -51 -32 -77 -25 -26 -39 -32 -73 -32 -34 0 -48 6 -73 32 -27 26 -32 39 -32
77 0 39 5 50 33 75 24 22 42 29 72 29 30 0 48 -7 72 -29z"/>
<path d="M6314 2160 c-105 -32 -184 -134 -184 -234 0 -102 81 -209 178 -236
53 -14 133 -12 183 5 203 72 226 337 38 440 -57 31 -158 43 -215 25z m157
-161 c23 -24 29 -40 29 -74 0 -34 -6 -50 -29 -74 -24 -26 -36 -31 -76 -31 -38
0 -52 5 -76 29 -24 24 -29 38 -29 76 0 38 5 52 29 76 24 24 38 29 76 29 40 0
52 -5 76 -31z"/>
</g>
</svg>
